<svg id="Layer_1" data-name="Layer 1" xmlns="http://www.w3.org/2000/svg" viewBox="0 0 516.94 671.68"><title>Artboard 3</title><path d="M516.35,412a248.32,248.32,0,0,1-19.91,100.32A261,261,0,0,1,359.78,650.58a248.34,248.34,0,0,1-100.07,21.1A248.3,248.3,0,0,1,159.4,651.77,261,261,0,0,1,21.1,515.11Q.31,468.18,0,415l169.63-1a97.23,97.23,0,0,0,1.59,17.1l-88.7,41.44v60.8l116.67-53.05q25.15,22.86,60,22.65,36.15-.22,62-26.46T346.72,413L344.27,1,513.9,0ZM281.86,430.81V414H232.6v16.79a23,23,0,0,0,23,23h3.18A23,23,0,0,0,281.86,430.81Z"/></svg>