<?xml version="1.0" encoding="UTF-8" standalone="no"?>
<svg width="82px" height="50px" viewBox="0 0 82 50" version="1.1" xmlns="http://www.w3.org/2000/svg" xmlns:xlink="http://www.w3.org/1999/xlink">
    <!-- Generator: Sketch 39 (31667) - http://www.bohemiancoding.com/sketch -->
    <title>Artboard 1</title>
    <desc>Created with Sketch.</desc>
    <defs></defs>
    <g id="Page-1" stroke="none" stroke-width="1" fill="none" fill-rule="evenodd">
        <g id="Artboard-1" fill="#000000">
            <path d="M11.136,2.856 L11.136,1 L25.088,1 L25.088,34.28 C25.088,38.9306899 23.8186794,42.7066522 21.28,45.608 C18.7413206,48.5093478 15.4240205,49.96 11.328,49.96 L10.688,49.96 C7.2746496,49.96 4.13868096,48.7440122 1.28,46.312 L1.28,43.688 C3.96801344,46.6320147 7.18931456,48.104 10.944,48.104 C14.6986854,48.104 17.642656,46.8346794 19.776,44.296 C21.909344,41.7573206 22.976,38.5040198 22.976,34.536 L22.976,2.856 L11.136,2.856 Z M35.624,1 L37.736,1 C42.1733555,1 45.9493178,2.52531808 49.064,5.576 C52.1786822,8.62668192 53.736,12.2213126 53.736,16.36 C53.736,20.4986874 52.1253494,24.0613184 48.904,27.048 C45.6826506,30.0346816 42.1306861,31.528 38.248,31.528 L37.736,31.528 L37.736,49 L35.624,49 L35.624,1 Z M37.736,29.736 L38.248,29.736 C41.8320179,29.736 44.95732,28.4133466 47.624,25.768 C50.29068,23.1226534 51.624,19.9866848 51.624,16.36 C51.624,12.7333152 50.2693469,9.57601344 47.56,6.888 C44.8506531,4.19998656 41.7466842,2.856 38.248,2.856 L37.736,2.856 L37.736,29.736 Z M61.648,1 L64.4,1 C68.5386874,1 72.1759843,2.52531808 75.312,5.576 C78.4480157,8.62668192 80.016,12.2106461 80.016,16.328 C80.016,20.4453539 78.416016,24.0186515 75.216,27.048 C72.015984,30.0773485 68.5813517,31.592 64.912,31.592 L64.464,31.592 L80.976,49 L78.224,49 L63.696,33.768 L63.696,49 L61.648,49 L61.648,1 Z M63.696,29.736 L64.848,29.736 C68.3040173,29.736 71.3546534,28.4133466 74,25.768 C76.6453466,23.1226534 77.968,19.9866848 77.968,16.36 C77.968,12.7333152 76.6026803,9.57601344 73.872,6.888 C71.1413197,4.19998656 68.0266842,2.856 64.528,2.856 L63.696,2.856 L63.696,29.736 Z" id="JPR"></path>
        </g>
    </g>
</svg>