<svg xmlns="http://www.w3.org/2000/svg" viewBox="0 0 516.42 671.72"><defs><style>.cls-1{fill:#fff;}</style></defs><title>Asset 1</title><g id="Layer_2" data-name="Layer 2"><g id="Layer_1-2" data-name="Layer 1"><path class="cls-1" d="M516.4,412a248.47,248.47,0,0,1-19.9,100.3A261.16,261.16,0,0,1,359.8,650.6a248,248,0,0,1-100.1,21.1,248.47,248.47,0,0,1-100.3-19.9A260.81,260.81,0,0,1,21.1,515.1Q.25,468.15,0,415l169.6-1a98,98,0,0,0,1.6,17.1L82.5,472.5v60.8l116.7-53c16.8,15.2,36.8,22.8,60,22.6,24.1-.1,44.8-9,62-26.5s25.7-38.7,25.5-63.5L344.2.9,514,0ZM281.9,430.8V414H232.6v16.8a23,23,0,0,0,23,23h3.2a23,23,0,0,0,23.1-23Z"/></g></g></svg>